<?xml version="1.0" standalone="no"?>
<!DOCTYPE svg PUBLIC "-//W3C//DTD SVG 20010904//EN"
 "http://www.w3.org/TR/2001/REC-SVG-20010904/DTD/svg10.dtd">
<svg version="1.0" xmlns="http://www.w3.org/2000/svg"
 width="200.000000pt" height="200.000000pt" viewBox="0 0 200.000000 200.000000"
 preserveAspectRatio="xMidYMid meet">
<metadata>
Created by potrace 1.14, written by Peter Selinger 2001-2017
</metadata>
<g transform="translate(0.000000,200.000000) scale(0.100000,-0.100000)"
fill="#000000" stroke="none">
<path d="M1587 1929 c-53 -18 -100 -57 -122 -103 -19 -37 -4 -95 37 -138 23
-25 26 -32 15 -49 -14 -22 -27 -25 -27 -5 0 7 -7 19 -15 26 -9 7 -14 19 -11
25 2 7 1 16 -4 21 -4 5 -10 25 -13 44 -14 94 -43 144 -70 121 -8 -6 -26 -33
-40 -59 -22 -41 -26 -59 -23 -113 4 -85 29 -133 79 -150 20 -7 37 -15 37 -18
0 -3 -13 -21 -28 -38 -40 -47 -53 -44 -52 12 0 3 -6 21 -14 40 -9 20 -16 39
-17 43 -1 4 -6 18 -11 32 -30 75 -79 160 -93 160 -6 0 -26 -16 -44 -35 -17
-19 -28 -35 -25 -35 4 0 0 -8 -9 -18 -8 -9 -20 -29 -26 -45 -13 -32 -21 -113
-13 -121 3 -3 7 -20 9 -38 2 -17 11 -40 20 -50 9 -10 12 -18 8 -18 -5 0 2 -11
15 -25 12 -13 26 -22 30 -20 5 3 11 -2 14 -11 3 -8 10 -12 16 -9 6 3 13 -1 16
-9 3 -9 10 -13 15 -10 20 12 7 -18 -20 -46 -28 -30 -43 -38 -39 -20 2 5 -22
35 -52 67 -31 32 -71 78 -90 103 -19 25 -37 47 -40 50 -3 3 -25 32 -49 65 -68
92 -92 115 -122 115 -23 0 -31 -9 -60 -67 -31 -65 -48 -170 -32 -197 3 -5 7
-24 9 -43 4 -42 25 -103 36 -103 4 0 8 -5 8 -10 0 -6 30 -42 68 -79 64 -65
101 -92 130 -97 27 -5 23 -14 -29 -69 -47 -49 -81 -92 -183 -229 -11 -16 -29
-37 -38 -47 -10 -11 -18 -23 -18 -29 0 -5 -4 -10 -10 -10 -5 0 -10 9 -10 19 0
10 -13 44 -30 75 -22 43 -25 54 -12 48 19 -10 78 -8 104 3 17 7 27 36 34 100
3 22 9 63 14 90 25 131 13 164 -77 210 -32 17 -60 32 -63 35 -3 3 -23 14 -45
23 -30 14 -49 32 -75 77 -19 33 -38 60 -42 60 -5 0 -8 6 -8 14 0 15 -114 133
-161 167 l-27 19 -28 -38 c-36 -46 -58 -83 -85 -142 -11 -24 -26 -48 -32 -52
-7 -4 -8 -8 -4 -8 4 0 3 -9 -3 -21 -6 -11 -13 -46 -14 -77 -2 -31 -9 -77 -16
-102 -15 -55 -16 -57 -25 -97 -4 -18 -12 -33 -17 -33 -5 0 -6 -5 -3 -10 4 -6
2 -16 -3 -23 -12 -16 -25 -81 -27 -137 -1 -38 4 -49 30 -73 16 -15 38 -30 48
-33 9 -3 17 -10 17 -16 0 -6 3 -9 6 -6 3 3 29 -3 57 -14 29 -11 59 -21 67 -23
8 -2 16 -4 18 -5 2 -3 5 -3 52 -14 69 -15 140 -40 140 -48 0 -5 4 -6 10 -3 5
3 10 2 10 -3 0 -5 11 -12 24 -14 18 -4 31 2 45 18 12 13 19 24 16 24 -3 0 2
14 11 31 9 19 14 47 12 70 -3 37 -3 37 14 19 10 -11 18 -25 18 -32 0 -7 7 -22
15 -32 8 -10 12 -22 10 -27 -3 -4 0 -19 6 -32 10 -21 7 -33 -20 -82 -17 -31
-29 -61 -26 -66 4 -5 2 -9 -3 -9 -5 0 -13 -10 -17 -23 -4 -12 -8 -24 -10 -27
-1 -3 -5 -14 -9 -25 -4 -11 -13 -33 -19 -50 -7 -16 -12 -32 -13 -35 -3 -15
-16 -67 -21 -80 -6 -15 -14 -64 -16 -87 0 -7 -3 -13 -7 -13 -3 0 -7 -10 -7
-22 -2 -40 -9 -74 -18 -88 -5 -9 -4 -15 3 -18 16 -5 27 -3 28 6 0 4 4 23 8 42
4 19 9 44 11 55 2 11 4 21 5 23 3 3 5 11 14 60 4 23 16 65 26 92 10 28 14 48
9 45 -5 -3 -2 7 6 22 13 25 46 100 49 113 10 36 56 112 71 117 27 9 113 5 135
-7 9 -5 20 -6 24 -3 3 3 6 4 6 0 0 -3 -15 -13 -32 -22 -47 -22 -66 -60 -56
-114 7 -41 40 -119 63 -150 30 -41 150 -159 157 -155 4 3 8 1 8 -5 0 -13 71
-35 110 -33 32 1 86 12 105 21 11 6 43 20 70 32 28 12 52 24 55 28 6 7 89 54
150 84 25 12 48 27 52 32 4 6 8 7 8 3 0 -4 17 0 38 9 52 22 143 26 186 8 46
-19 46 -19 46 9 0 12 -11 36 -26 52 -54 62 -109 114 -121 114 -6 0 -13 4 -15
9 -3 9 -194 104 -204 101 -4 -1 -10 2 -13 7 -7 10 -53 31 -64 29 -5 0 -13 7
-18 17 -6 9 -16 17 -24 17 -8 0 -21 10 -29 22 -9 12 -16 19 -16 16 0 -4 -17 9
-37 27 -21 19 -44 35 -50 35 -7 0 -13 3 -13 8 0 15 -56 31 -100 28 -55 -3
-155 -49 -171 -78 -22 -42 -27 -74 -14 -99 7 -13 11 -27 9 -31 -7 -11 -42 -10
-46 1 -3 8 -103 24 -146 22 -20 -1 -21 1 -10 21 7 12 20 29 28 39 23 26 32 39
80 104 57 77 51 70 115 140 30 33 55 63 55 68 0 18 27 4 37 -20 37 -86 91
-129 178 -141 87 -13 366 -6 435 11 59 14 70 21 70 38 0 24 -25 48 -76 74 -21
11 -41 22 -44 25 -3 3 -16 10 -30 17 -14 6 -99 47 -190 91 -91 43 -173 82
-184 86 -17 6 -16 9 13 36 17 17 31 35 31 40 0 22 19 8 30 -22 18 -54 69 -86
145 -94 17 -1 30 -3 30 -4 0 -1 19 -3 43 -4 23 -1 42 0 42 4 0 3 19 6 43 7 40
0 92 7 146 18 65 13 47 48 -51 96 -135 68 -203 98 -251 111 -26 6 -47 18 -47
25 0 8 14 28 31 47 l32 33 29 -29 c16 -16 33 -26 39 -23 5 4 9 2 9 -3 0 -12
118 -6 155 8 17 7 37 13 45 15 30 6 68 24 74 34 16 26 -56 76 -114 80 -11 0
-20 4 -20 9 0 4 25 7 55 6 57 -1 110 18 119 42 3 8 1 14 -4 14 -6 0 -5 11 1
28 6 15 10 28 9 30 -9 16 35 132 50 132 6 0 10 6 10 13 0 7 9 18 20 25 25 15
26 42 3 43 -52 4 -78 7 -78 9 0 1 -49 3 -110 4 -78 1 -123 -3 -158 -15z m6
-307 c16 -7 34 -12 42 -12 8 0 16 -3 18 -8 6 -9 -70 -8 -100 2 -13 4 -20 13
-17 21 6 14 15 14 57 -3z"/>
</g>
</svg>
